<svg width="296" height="296" viewBox="0 0 296 296" fill="none" xmlns="http://www.w3.org/2000/svg">
<g clip-path="url(#clip0_17_2)">
<path d="M128.572 219.048V242.858H33.333V252.382H261.904V242.858H166.666V219.048H280.952C288.828 219.048 295.238 212.638 295.238 204.762V14.286C295.238 6.41 288.829 0 280.952 0H14.286C6.41 0 0 6.41 0 14.286V204.762C0 212.638 6.41 219.048 14.286 219.048H128.572ZM157.143 242.857H138.095V219.047H157.143V242.857ZM9.524 204.762V14.286C9.524 11.662 11.662 9.524 14.286 9.524H280.953C283.577 9.524 285.715 11.662 285.715 14.286V204.762H285.714C285.714 207.391 283.576 209.524 280.952 209.524H14.286C11.662 209.524 9.524 207.391 9.524 204.762Z" fill="white"/>
<path d="M276.19 38.095H19.048V180.952H276.19V38.095ZM266.666 171.429H28.571V47.619H266.666V171.429Z" fill="white"/>
<path d="M161.904 190.476H133.333V200H161.904V190.476Z" fill="white"/>
<path d="M61.905 138.095H95.915C98.044 146.285 105.439 152.381 114.286 152.381C123.133 152.381 130.529 146.286 132.657 138.095H176.867C178.996 146.285 186.391 152.381 195.238 152.381C204.085 152.381 211.481 146.286 213.609 138.095H242.857V100.633L207.905 95.638L193.419 66.667H126.024L106.79 95.514L61.905 100.5V138.095ZM114.286 142.857C109.034 142.857 104.762 138.586 104.762 133.333C104.762 128.081 109.033 123.809 114.286 123.809C119.538 123.809 123.81 128.08 123.81 133.333C123.81 138.586 119.538 142.857 114.286 142.857ZM195.238 142.857C189.986 142.857 185.714 138.586 185.714 133.333C185.714 128.081 189.985 123.809 195.238 123.809C200.491 123.809 204.762 128.08 204.762 133.333C204.762 138.586 200.49 142.857 195.238 142.857ZM71.429 109.024L112.258 104.486L131.12 76.191H187.534L201.62 104.362L233.334 108.891V128.572H213.61C211.481 120.381 204.086 114.286 195.238 114.286C186.39 114.286 178.995 120.381 176.867 128.572H132.657C130.528 120.382 123.133 114.286 114.286 114.286C105.439 114.286 98.043 120.381 95.915 128.572H71.429V109.024Z" fill="white"/>
<path d="M179.625 80.9519H140.31L124.439 104.762H187.563L179.625 80.9519ZM142.233 95.2379L145.409 90.4759H172.761L174.347 95.2379H142.233Z" fill="white"/>
<path d="M71.428 57.1431H42.857V66.6671H71.428V57.1431Z" fill="white"/>
<path d="M71.428 76.1899H42.857V85.7139H71.428V76.1899Z" fill="white"/>
<path d="M52.381 100H42.857V109.524H52.381V100Z" fill="white"/>
<path d="M85.714 152.381H42.857V161.905H85.714V152.381Z" fill="white"/>
<path d="M252.381 57.1431H219.048V66.6671H252.381V57.1431Z" fill="white"/>
<path d="M252.381 76.1899H219.048V85.7139H252.381V76.1899Z" fill="white"/>
<path d="M252.381 152.381H219.048V161.905H252.381V152.381Z" fill="white"/>
<path d="M142.857 152.381H133.333V161.905H142.857V152.381Z" fill="white"/>
<path d="M161.905 152.381H152.381V161.905H161.905V152.381Z" fill="white"/>
<path d="M52.381 119.048H42.857V128.572H52.381V119.048Z" fill="white"/>
<path d="M261.905 257.143C243.524 257.143 228.572 272.1 228.572 290.476V295.238H295.239V290.476C295.238 272.1 280.286 257.143 261.905 257.143ZM238.576 285.714C240.786 274.862 250.409 266.666 261.905 266.666C273.4 266.666 283.024 274.861 285.234 285.714H238.576Z" fill="white"/>
<path d="M4.76199 271.429H19.048V285.715H4.76199V295.239H219.048V261.906H4.76199V271.429ZM195.238 271.428H209.524V285.714H195.238V271.428ZM171.429 271.429H185.715V285.715H171.429V271.429ZM147.619 271.428H161.905V285.714H147.619V271.428ZM123.81 271.428H138.096V285.714H138.095H123.81V271.428ZM100 271.428H114.286V285.714H100V271.428ZM76.19 271.428H90.476V285.714H76.19V271.428ZM52.381 271.428H66.667V285.714H52.381V271.428ZM28.571 271.429H42.857V285.715H28.571V271.429Z" fill="white"/>
<path d="M142.857 19.0481H133.333V28.5721H142.857V19.0481Z" fill="white"/>
<path d="M161.905 19.0481H152.381V28.5721H161.905V19.0481Z" fill="white"/>
</g>
<defs>
<clipPath id="clip0_17_2">
<rect width="295.239" height="295.239" fill="white"/>
</clipPath>
</defs>
</svg>
