<svg width="512" height="512" viewBox="0 0 512 512" fill="none" xmlns="http://www.w3.org/2000/svg">
<path d="M463.996 126.864L340.192 3.061C338.231 1.101 335.574 0 332.803 0H95.726C67.724 0 44.944 22.782 44.944 50.784V461.218C44.944 489.219 67.725 512.001 95.727 512.001H416.274C444.276 512.001 467.057 489.22 467.057 461.218V134.253C467.056 131.482 465.955 128.824 463.996 126.864ZM343.255 35.679L431.382 123.805H373.14C365.156 123.805 357.65 120.696 352.006 115.052C346.363 109.409 343.254 101.904 343.255 93.921V35.679ZM446.158 461.217C446.158 477.696 432.752 491.102 416.274 491.102H95.726C79.247 491.102 65.841 477.696 65.841 461.217V50.784C65.842 34.305 79.248 20.898 95.726 20.898H322.357V93.919C322.355 107.484 327.637 120.237 337.228 129.828C346.82 139.42 359.573 144.702 373.139 144.702H446.157V461.217H446.158Z" fill="white"/>
<path d="M275.092 351.492H270.414C264.644 351.492 259.965 356.17 259.965 361.941C259.965 367.712 264.644 372.39 270.414 372.39H275.092C280.862 372.39 285.541 367.712 285.541 361.941C285.541 356.17 280.862 351.492 275.092 351.492Z" fill="white"/>
<path d="M236.61 351.492H135.118C129.348 351.492 124.669 356.17 124.669 361.941C124.669 367.712 129.348 372.39 135.118 372.39H236.61C242.38 372.39 247.059 367.712 247.059 361.941C247.059 356.17 242.381 351.492 236.61 351.492Z" fill="white"/>
<path d="M376.882 303.747H135.119C129.349 303.747 124.67 308.425 124.67 314.196C124.67 319.967 129.349 324.645 135.119 324.645H376.882C382.652 324.645 387.331 319.967 387.331 314.196C387.331 308.425 382.652 303.747 376.882 303.747Z" fill="white"/>
<path d="M376.882 256H135.119C129.349 256 124.67 260.678 124.67 266.449C124.67 272.22 129.349 276.898 135.119 276.898H376.882C382.652 276.898 387.331 272.22 387.331 266.449C387.331 260.678 382.652 256 376.882 256Z" fill="white"/>
<path d="M376.882 208.255H135.119C129.349 208.255 124.67 212.933 124.67 218.704C124.67 224.475 129.349 229.153 135.119 229.153H376.882C382.652 229.153 387.331 224.475 387.331 218.704C387.331 212.933 382.652 208.255 376.882 208.255Z" fill="white"/>
</svg>
