<svg width="128" height="28" viewBox="0 0 128 28" fill="none" xmlns="http://www.w3.org/2000/svg">
<path d="M41.1685 23.2065C41.1033 23.1436 41.0516 23.068 41.0168 22.9843C40.982 22.9007 40.9648 22.8107 40.9662 22.7201V6.92194H35.6547C35.5641 6.92333 35.4742 6.90608 35.3905 6.87128C35.3068 6.83647 35.2312 6.78484 35.1683 6.7196C35.1009 6.65184 35.0481 6.57092 35.0133 6.48189C34.9785 6.39285 34.9624 6.2976 34.966 6.20207V4.03079C34.9581 3.84049 35.0251 3.65468 35.1527 3.51327C35.2171 3.44565 35.2952 3.39261 35.3818 3.35771C35.4684 3.32281 35.5614 3.30685 35.6547 3.31092H50.3244C50.4195 3.30708 50.5143 3.32298 50.6029 3.3576C50.6915 3.39222 50.772 3.44482 50.8393 3.51209C50.9065 3.57936 50.9591 3.65983 50.9937 3.74843C51.0284 3.83704 51.0443 3.93185 51.0404 4.0269V6.17873C51.0482 6.27598 51.0353 6.37379 51.0024 6.46567C50.9696 6.55755 50.9176 6.6414 50.8499 6.71167C50.7822 6.78194 50.7004 6.83702 50.6098 6.87327C50.5192 6.90952 50.4219 6.92611 50.3244 6.92194H45.0441V22.7201C45.0475 22.9004 44.9805 23.0749 44.8573 23.2065C44.793 23.2741 44.7149 23.3272 44.6283 23.3621C44.5417 23.397 44.4486 23.4129 44.3554 23.4089H41.6588C41.5675 23.4108 41.4769 23.3938 41.3925 23.359C41.3081 23.3242 41.2318 23.2723 41.1685 23.2065Z" fill="white"/>
<path d="M51.2857 23.2327C51.2291 23.1763 51.1847 23.1088 51.1553 23.0345C51.1258 22.9602 51.112 22.8806 51.1145 22.8008L51.1729 22.544L58.0603 4.02969C58.1301 3.81319 58.2694 3.62573 58.4565 3.49631C58.6436 3.36689 58.8681 3.30272 59.0953 3.31371H62.2511C62.4783 3.30272 62.7028 3.36689 62.8899 3.49631C63.077 3.62573 63.2163 3.81319 63.2861 4.02969L70.1735 22.544L70.2319 22.8008C70.2337 22.882 70.2179 22.9626 70.1857 23.0371C70.1534 23.1117 70.1055 23.1784 70.0451 23.2327C69.9338 23.3417 69.7845 23.4031 69.6288 23.4039H67.0722C66.8933 23.4148 66.7156 23.3677 66.5656 23.2696C66.4155 23.1714 66.3012 23.0275 66.2395 22.8591L64.9204 19.3726H56.426L55.103 22.8747C55.0413 23.043 54.927 23.187 54.7769 23.2851C54.6269 23.3833 54.4492 23.4304 54.2703 23.4195H51.7138C51.6334 23.4195 51.5539 23.4029 51.4802 23.3708C51.4066 23.3386 51.3404 23.2916 51.2857 23.2327ZM63.9165 16.0574L60.6713 7.21657L57.426 16.0574H63.9126" fill="white"/>
<path d="M82.8042 23.2057C82.7389 23.1428 82.6873 23.0672 82.6525 22.9836C82.6177 22.8999 82.6004 22.81 82.6018 22.7193V15.972C82.0583 16.4551 81.394 16.7819 80.6796 16.9176C79.8057 17.1295 78.9094 17.2354 78.0102 17.2328C75.6366 17.2328 73.8713 16.6686 72.7143 15.5401C71.5573 14.4117 70.9905 12.719 71.0139 10.4621V4.00278C71.0098 3.90951 71.0258 3.81646 71.0607 3.72987C71.0956 3.64329 71.1486 3.56518 71.2162 3.50081C71.3479 3.37762 71.5224 3.31062 71.7026 3.31404H74.3447C74.535 3.30658 74.7206 3.37358 74.8623 3.50081C74.9299 3.56518 74.9829 3.64329 75.0178 3.72987C75.0527 3.81646 75.0687 3.90951 75.0646 4.00278V10.2598C75.0646 11.3882 75.3512 12.2106 75.9245 12.7268C76.4978 13.243 77.4551 13.5024 78.7962 13.505C79.6994 13.5167 80.5947 13.3363 81.4228 12.9758C81.7814 12.8423 82.0886 12.5988 82.3004 12.28C82.5121 11.9613 82.6177 11.5838 82.6018 11.2014V4.00278C82.5977 3.90951 82.6137 3.81646 82.6486 3.72987C82.6835 3.64329 82.7365 3.56518 82.8042 3.50081C82.9358 3.37762 83.1103 3.31062 83.2906 3.31404H85.9327C86.1229 3.30658 86.3086 3.37358 86.4502 3.50081C86.5178 3.56518 86.5708 3.64329 86.6057 3.72987C86.6407 3.81646 86.6566 3.90951 86.6525 4.00278V22.7193C86.6566 22.8126 86.6407 22.9057 86.6057 22.9922C86.5708 23.0788 86.5178 23.1569 86.4502 23.2213C86.3088 23.3489 86.123 23.416 85.9327 23.4081H83.2906C83.1999 23.4095 83.11 23.3922 83.0263 23.3574C82.9427 23.3226 82.867 23.271 82.8042 23.2057Z" fill="white"/>
<path d="M107.241 22.7464C107.241 22.918 107.174 23.0828 107.054 23.2056C106.994 23.2715 106.921 23.3237 106.839 23.3586C106.757 23.3936 106.668 23.4104 106.579 23.4079H103.564C103.389 23.4154 103.216 23.3738 103.064 23.2878C102.912 23.2018 102.787 23.0749 102.704 22.9215L97.7968 15.0536H95.1002V22.7192C95.1013 22.8098 95.084 22.8996 95.0492 22.9833C95.0144 23.0669 94.9629 23.1426 94.8979 23.2056C94.83 23.2729 94.749 23.3255 94.66 23.3603C94.571 23.3951 94.4758 23.4113 94.3803 23.4079H91.7382C91.6476 23.4085 91.5578 23.391 91.474 23.3566C91.3902 23.3221 91.3141 23.2714 91.25 23.2074C91.186 23.1433 91.1353 23.0672 91.1008 22.9834C91.0664 22.8996 91.049 22.8098 91.0495 22.7192V4.04154C91.0416 3.85123 91.1087 3.66542 91.2362 3.52401C91.3006 3.4564 91.3787 3.40335 91.4653 3.36845C91.5519 3.33355 91.6449 3.3176 91.7382 3.32167H94.3803C94.4754 3.31783 94.5702 3.33372 94.6588 3.36834C94.7474 3.40296 94.8279 3.45557 94.8951 3.52283C94.9624 3.5901 95.015 3.67057 95.0496 3.75917C95.0842 3.84778 95.1001 3.94259 95.0963 4.03764V11.4309L97.5633 11.4581L102.186 3.85087C102.295 3.67829 102.449 3.53882 102.631 3.44758C102.814 3.35634 103.018 3.31683 103.221 3.33334H106.147C106.229 3.32865 106.311 3.3415 106.388 3.37103C106.464 3.40055 106.533 3.44608 106.591 3.50455C106.698 3.62242 106.755 3.77727 106.75 3.93647C106.739 4.06385 106.689 4.18463 106.607 4.28279L101.209 13.0379L107.151 22.4546C107.21 22.5407 107.241 22.6424 107.241 22.7464Z" fill="white"/>
<path d="M110.735 23.2057C110.607 23.0643 110.54 22.8785 110.548 22.6882V4.01053C110.54 3.82022 110.607 3.63442 110.735 3.493C110.799 3.42539 110.877 3.37235 110.964 3.33744C111.051 3.30254 111.144 3.28659 111.237 3.29066H113.906C113.997 3.2895 114.087 3.30685 114.17 3.34164C114.254 3.37644 114.33 3.42794 114.393 3.493C114.46 3.5609 114.513 3.64184 114.547 3.73084C114.582 3.81984 114.598 3.91502 114.595 4.01053V17.151L123.981 3.80819C124.057 3.65449 124.176 3.52647 124.324 3.44C124.472 3.35354 124.642 3.31243 124.813 3.32179H127.226C127.319 3.31772 127.412 3.33367 127.499 3.36857C127.585 3.40348 127.663 3.45652 127.728 3.52413C127.855 3.66576 127.922 3.85142 127.915 4.04166V22.7193C127.918 22.8996 127.851 23.0741 127.728 23.2057C127.663 23.2733 127.585 23.3264 127.499 23.3613C127.412 23.3962 127.319 23.4121 127.226 23.408H124.584C124.488 23.4116 124.393 23.3955 124.304 23.3607C124.215 23.3259 124.134 23.2731 124.066 23.2057C124.001 23.1428 123.949 23.0672 123.915 22.9835C123.88 22.8998 123.862 22.8099 123.864 22.7193V9.87843L114.525 22.91C114.445 23.0606 114.325 23.1859 114.178 23.2719C114.031 23.3578 113.863 23.4009 113.692 23.3964H111.253C111.158 23.4045 111.062 23.3916 110.973 23.3587C110.883 23.3257 110.802 23.2735 110.735 23.2057Z" fill="white"/>
<path d="M24.0886 0H3.32737C1.48972 0 0 1.48972 0 3.32737V24.0886C0 25.9263 1.48972 27.416 3.32737 27.416H24.0886C25.9263 27.416 27.416 25.9263 27.416 24.0886V3.32737C27.416 1.48972 25.9263 0 24.0886 0Z" fill="url(#paint0_linear_19_2)"/>
<path d="M27.4212 13.9272V13.2647C25.9268 13.3295 24.2133 13.3793 22.5247 13.3793C17.5935 13.3793 12.9112 12.9509 12.8614 12.9459C12.8182 12.942 12.7747 12.9466 12.7333 12.9595C12.6919 12.9724 12.6535 12.9933 12.6202 13.0211C12.5869 13.0488 12.5594 13.0829 12.5392 13.1213C12.5191 13.1597 12.5067 13.2016 12.5028 13.2448C12.4989 13.288 12.5035 13.3315 12.5164 13.3729C12.5293 13.4143 12.5502 13.4527 12.5779 13.486C12.6057 13.5193 12.6397 13.5468 12.6781 13.567C12.7165 13.5871 12.7585 13.5995 12.8016 13.6034C12.8515 13.6034 17.5636 14.0418 22.5247 14.0418C24.2084 14.0468 25.9069 13.972 27.4212 13.9272Z" fill="#1F1F1F"/>
<path d="M12.5773 15.8649C11.6039 15.7148 10.6114 15.7434 9.64834 15.9496L9.48895 15.9895L9.42419 16.1389C9.27137 16.5215 9.22358 16.9379 9.28576 17.3451C9.34794 17.7524 9.51783 18.1356 9.77785 18.4551C9.80059 18.4982 9.83263 18.5358 9.87167 18.565C9.9107 18.5942 9.95575 18.6144 10.0036 18.6241C10.0514 18.6337 10.1007 18.6326 10.148 18.6209C10.1953 18.6091 10.2395 18.587 10.2772 18.5561C10.3149 18.5251 10.3452 18.4862 10.366 18.4421C10.3868 18.398 10.3976 18.3498 10.3975 18.3011C10.3973 18.2523 10.3864 18.2042 10.3654 18.1602C10.3444 18.1162 10.3138 18.0774 10.276 18.0467C10.107 17.8414 9.98974 17.5985 9.93426 17.3384C9.87878 17.0783 9.88663 16.8087 9.95717 16.5523C10.7791 16.3986 11.6209 16.3834 12.4477 16.5075C13.8723 16.7516 14.5896 17.2248 14.7839 17.4539L14.2011 18.2061C14.1555 18.2731 14.1362 18.3547 14.1471 18.435C14.158 18.5154 14.1982 18.5889 14.26 18.6415C14.3218 18.694 14.4008 18.7218 14.4819 18.7196C14.563 18.7174 14.6404 18.6853 14.6992 18.6294L15.5261 17.6332V17.5137C15.5161 16.8661 14.2509 16.1538 12.5773 15.8649Z" fill="#1F1F1F"/>
<path d="M15.1573 20.3926C15.1573 20.4798 15.1919 20.5634 15.2536 20.6251C15.3153 20.6867 15.3989 20.7214 15.4861 20.7214H27.4208V20.0589H15.491C15.447 20.0582 15.4033 20.0664 15.3625 20.0829C15.3217 20.0995 15.2847 20.124 15.2536 20.1551C15.2224 20.1863 15.1979 20.2233 15.1813 20.2641C15.1648 20.3049 15.1566 20.3486 15.1573 20.3926Z" fill="#1F1F1F"/>
<path d="M17.6881 17.8623C17.6003 17.8623 17.516 17.8972 17.4539 17.9593C17.3918 18.0214 17.3569 18.1057 17.3569 18.1935C17.3569 18.2814 17.3918 18.3657 17.4539 18.4278C17.516 18.4899 17.6003 18.5248 17.6881 18.5248H27.4212V17.8623H17.6881Z" fill="#1F1F1F"/>
<path d="M16.3083 23.2468C15.865 23.7897 15.3669 24.4323 15.1577 24.7013H15.9945C16.2286 24.3974 16.5374 24.0089 16.8164 23.6652C17.3593 23.0027 17.698 22.8732 18.0965 22.8732H27.4211V22.2107H18.1015C17.4291 22.2107 16.911 22.5096 16.3083 23.2468Z" fill="#1F1F1F"/>
<path d="M15.9944 24.7013H15.1575L15.1077 24.7661L15.1575 24.7013H9.41432C8.38821 24.7013 7.8901 24.0488 7.8901 22.7089C7.8901 22.0713 7.8901 21.3789 7.8901 20.6467C7.8901 19.3915 7.86022 18.0914 7.8901 17.1251C7.93493 15.6656 8.09433 15.3468 9.09553 14.6744C9.39938 14.4701 9.67334 14.2609 9.91243 14.0717C10.2854 13.7751 10.6367 13.4522 10.9634 13.1053L11.0083 13.0555V12.9957C11.4267 11.8202 12.7218 8.61735 13.6532 7.95985C14.5847 7.30234 18.1362 6.8142 22.7487 6.8142C23.7449 6.8142 25.6726 6.84408 27.411 6.93872V6.26627C25.3439 6.15171 23.1522 6.14673 22.7487 6.14673C20.9456 6.14673 14.9334 6.23639 13.2846 7.41193C12.5225 7.94989 11.6907 9.61357 11.1129 10.9535C9.96606 10.7204 8.79552 10.6251 7.6261 10.6696C7.47716 10.6703 7.33104 10.7102 7.20248 10.7854C7.07392 10.8607 6.96748 10.9684 6.89388 11.0979C6.52528 11.7704 7.12301 12.9559 7.24754 13.185L7.29237 13.2647L7.37207 13.3145C7.88785 13.5768 8.42848 13.7871 8.98594 13.9421L8.72693 14.1215C7.48165 14.9583 7.27743 15.5411 7.2326 17.1101C7.20271 18.1063 7.2326 19.4014 7.2326 20.6617C7.2326 21.3939 7.2326 22.0862 7.2326 22.7139C7.2326 23.9044 7.59622 24.5718 8.05946 24.9354L8.09931 27.3513C8.09629 27.406 8.09629 27.4609 8.09931 27.5156H8.76678C8.76211 27.4676 8.76211 27.4192 8.76678 27.3712L8.72195 25.2692L8.60738 25.2243L8.72195 25.2692V24.7711C8.72173 24.7274 8.71281 24.6842 8.6957 24.644C8.6786 24.6038 8.65365 24.5674 8.62232 24.5369C8.65365 24.5674 8.6786 24.6038 8.6957 24.644C8.71281 24.6842 8.72173 24.7274 8.72195 24.7711V25.2692C8.9475 25.3308 9.1805 25.361 9.41432 25.3588H12.1788V27.3214C12.1747 27.3856 12.163 27.4492 12.144 27.5107H12.8214C12.8252 27.4493 12.8252 27.3877 12.8214 27.3264V25.3339V25.0799C12.8221 25.0144 12.8031 24.9502 12.7671 24.8955C12.731 24.8408 12.6794 24.7982 12.6189 24.773C12.5584 24.7479 12.4918 24.7414 12.4276 24.7543C12.3634 24.7673 12.3045 24.7991 12.2585 24.8458C12.3045 24.7991 12.3634 24.7673 12.4276 24.7543C12.4918 24.7414 12.5584 24.7479 12.6189 24.773C12.6794 24.7982 12.731 24.8408 12.7671 24.8955C12.8031 24.9502 12.8221 25.0144 12.8214 25.0799V25.3339H15.3119C15.3513 25.3324 15.3901 25.324 15.4265 25.309C15.3901 25.324 15.3513 25.3324 15.3119 25.3339H27.4011C27.4069 25.236 27.4069 25.1379 27.4011 25.04V24.6714H15.9944V24.7013ZM9.74805 13.4739H9.77794C9.85106 13.4947 9.91454 13.5406 9.95726 13.6034C9.91454 13.5406 9.85106 13.4947 9.77794 13.4739H9.74805ZM9.80284 14.1165C9.82934 14.1064 9.85445 14.093 9.87756 14.0766C9.85445 14.093 9.82934 14.1064 9.80284 14.1165ZM9.98216 13.6184C9.98216 13.6184 9.98216 13.6184 9.98216 13.6483C9.98216 13.6782 9.98715 13.6433 9.98216 13.6383V13.6184ZM11.5213 11.4914C11.5475 11.4557 11.5661 11.415 11.5761 11.3719C11.5777 11.3537 11.5777 11.3353 11.5761 11.3171C11.5777 11.3353 11.5777 11.3537 11.5761 11.3719C11.5688 11.422 11.5501 11.4697 11.5213 11.5114V11.4914ZM11.5213 11.1179C11.474 11.0466 11.4007 10.9965 11.3171 10.9784L11.1029 10.9336L11.3171 10.9784C11.3611 10.9891 11.4023 11.0088 11.4383 11.0363C11.4743 11.0637 11.5043 11.0983 11.5263 11.1378L11.5213 11.1179ZM7.76558 12.7666C7.54641 12.3283 7.3123 11.6409 7.45177 11.3918C7.45177 11.3918 7.49659 11.3171 7.65101 11.3022C8.723 11.2615 9.7961 11.3451 10.8489 11.5512C10.6397 12.0493 10.4853 12.4877 10.4155 12.672C10.1636 12.9338 9.89759 13.1815 9.61854 13.4142C8.98406 13.2605 8.36409 13.0522 7.76558 12.7915V12.7666ZM9.61356 14.1015H9.68828H9.61356L9.11545 13.9621L9.61356 14.1015ZM8.05448 24.9305C8.10411 24.9664 8.15566 24.9997 8.20889 25.0301C8.15567 24.9997 8.10412 24.9664 8.05448 24.9305ZM8.37825 24.4323C8.31249 24.4328 8.24838 24.453 8.19422 24.4903C8.14005 24.5276 8.09832 24.5803 8.0744 24.6416C8.09832 24.5803 8.14005 24.5276 8.19422 24.4903C8.24838 24.453 8.31249 24.4328 8.37825 24.4323C8.41125 24.427 8.44488 24.427 8.47787 24.4323C8.44488 24.427 8.41125 24.427 8.37825 24.4323ZM15.0728 25.2293C15.0873 25.2495 15.104 25.2678 15.1227 25.2841C15.1045 25.271 15.0878 25.256 15.0728 25.2393V25.2293Z" fill="#1F1F1F"/>
<defs>
<linearGradient id="paint0_linear_19_2" x1="0.64005" y1="1.33713" x2="24.9619" y2="26.2991" gradientUnits="userSpaceOnUse">
<stop stop-color="#C3032D"/>
<stop offset="0.649725" stop-color="#B60429"/>
</linearGradient>
</defs>
</svg>
